<?xml version="1.0" encoding="UTF-8"?>
<svg width="120" height="120" viewBox="0 0 120 120" xmlns="http://www.w3.org/2000/svg">
  <defs>
    <linearGradient id="gradient" x1="0" y1="0" x2="1" y2="1">
      <stop offset="0%" stop-color="#7c5cff"/>
      <stop offset="100%" stop-color="#ff6d9c"/>
    </linearGradient>
    <radialGradient id="glow" cx="50%" cy="30%" r="80%">
      <stop offset="0%" stop-color="#ffffff" stop-opacity="0.4"/>
      <stop offset="100%" stop-color="#000000" stop-opacity="0"/>
    </radialGradient>
  </defs>
  <rect width="120" height="120" rx="28" fill="#0b1220"/>
  <circle cx="60" cy="60" r="52" fill="url(#gradient)" opacity="0.15"/>
  <path d="M38 28h26a16 16 0 0 1 16 16v12a16 16 0 0 1-16 16H50v24a10 10 0 0 1-10 10H38a6 6 0 0 1-6-6V34a6 6 0 0 1 6-6z" fill="url(#gradient)"/>
  <rect x="50" y="28" width="14" height="18" fill="#0b1220"/>
  <rect x="74" y="34" width="10" height="10" rx="2" fill="url(#gradient)"/>
  <rect x="74" y="52" width="10" height="10" rx="2" fill="url(#gradient)"/>
  <rect x="74" y="70" width="10" height="10" rx="2" fill="url(#gradient)"/>
  <circle cx="60" cy="62" r="54" fill="url(#glow)"/>
</svg>
